<svg version="1.2" xmlns="http://www.w3.org/2000/svg" viewBox="0 0 21 22" width="20" height="21">
	<title>Vector-svg</title>
	<style>
		.s0 { fill: #e03838 } 
	</style>
	<g id="Layer">
		<path id="Layer" fill-rule="evenodd" class="s0" d="m0.5 11.2c0-2.3 0-3.4 0.5-4.4 0.5-0.9 1.5-1.5 3.4-2.7l2-1.2c2-1.3 3-1.9 4.1-1.9 1.1 0 2.1 0.6 4.1 1.9l2 1.2c1.9 1.2 2.9 1.8 3.4 2.7 0.5 1 0.5 2.1 0.5 4.4v1.5c0 3.9 0 5.9-1.2 7.1-1 1.1-2.7 1.2-5.8 1.2v-4.5c0 0 0-0.3 0-0.5-0.1-1.4-1.6-2.5-3-2.5-1.4 0-2.8 1.1-3 2.5 0 0.2 0 0.5 0 0.5v4.5c-3.1 0-4.8-0.1-5.8-1.2-1.2-1.2-1.2-3.2-1.2-7.1zm13 9.8q-0.5 0-1 0h-4q-0.5 0-1 0z"/>
		<path id="Layer copy" fill-rule="evenodd" class="s0" d="m0.5 11.2c0-2.3 0-3.4 0.5-4.4 0.5-0.9 1.5-1.5 3.4-2.7l2-1.2c2-1.3 3-1.9 4.1-1.9 1.1 0 2.1 0.6 4.1 1.9l2 1.2c1.9 1.2 2.9 1.8 3.4 2.7 0.5 1 0.5 2.1 0.5 4.4v1.5c0 3.9 0 5.9-1.2 7.1-1 1.1-2.7 1.2-5.8 1.2v-4.5c0 0 0-0.3 0-0.5-0.1-1.4-1.6-2.5-3-2.5-1.4 0-2.8 1.1-3 2.5 0 0.2 0 0.5 0 0.5v4.5c-3.1 0-4.8-0.1-5.8-1.2-1.2-1.2-1.2-3.2-1.2-7.1zm13 9.8q-0.5 0-1 0h-4q-0.5 0-1 0z"/>
	</g>
</svg>