<svg version="1.2" xmlns="http://www.w3.org/2000/svg" viewBox="0 0 36 36" width="36" height="36">
	<title>Property-svg</title>
	<style>
		.s0 { fill: #ffffff } 
	</style>
	<g id="Layer">
		<path id="Layer" class="s0" d="m16.1 2.4c0.6-1.9 3.2-1.9 3.8 0l2.6 8.6c0.3 0.8 1.1 1.4 1.9 1.4h8.6c1.9 0 2.7 2.6 1.2 3.7l-7 5.3c-0.7 0.6-1 1.5-0.7 2.3l2.7 8.6c0.6 1.9-1.5 3.5-3.1 2.3l-6.9-5.3c-0.7-0.5-1.7-0.5-2.4 0l-6.9 5.3c-1.6 1.2-3.7-0.4-3.1-2.3l2.7-8.6c0.3-0.8 0-1.7-0.7-2.3l-7-5.3c-1.5-1.1-0.7-3.7 1.2-3.7h8.6c0.8 0 1.6-0.6 1.9-1.4z"/>
	</g>
</svg>